<svg fill="none" xmlns="http://www.w3.org/2000/svg" viewBox="0 0 17 20"><path fill-rule="evenodd" clip-rule="evenodd" d="M12.5613 0c-2.4021.0950031-4.3622 2.56592-4.0885 4.60932C10.693 4.77849 12.8231 2.33841 12.5613 0Zm-.2898 19.974c2.0604-.0367 4.0604-3.401 4.7285-5.301-3.4136-1.5642-3.9091-5.82021-.7293-7.85528-1.1985-1.71839-3.066-1.9534-3.7307-1.9809-.9712-.09629-1.9135.26808-2.68356.56585-.48955.1893-.90949.35168-1.22299.35168-.3478 0-.77831-.16764-1.26165-.35586-.63294-.24648-1.35647-.52823-2.1035-.515C2.8118 4.91933 0 6.88022 0 10.8362c0 4.3068 3.3745 9.2453 5.5607 9.1628.59978-.0232 1.02646-.2014 1.46771-.3857.50925-.2127 1.03791-.4335 1.87449-.4335.79874 0 1.304.2143 1.7897.4204.4643.197.9108.3864 1.5789.3738Z" fill="#000"/></svg>